<svg id="Layer_1" data-name="Layer 1" xmlns="http://www.w3.org/2000/svg" viewBox="0 0 55.1 12.91"><defs><style>.cls-1{fill:#ad41e5;}</style></defs><path class="cls-1" d="M92.15,260.48H40l3-12.91H95.13ZM40.64,260H91.76l2.76-11.94H43.41Z" transform="translate(-40.03 -247.57)"/><path class="cls-1" d="M48.77,250.94a2.35,2.35,0,0,1,2.32,3.1,4.2,4.2,0,0,1-3.85,3.09A2.33,2.33,0,0,1,44.92,254,4.22,4.22,0,0,1,48.77,250.94Zm-.4,1.62A2,2,0,0,0,46.54,254a1.12,1.12,0,0,0,1.1,1.48A2,2,0,0,0,49.48,254,1.12,1.12,0,0,0,48.37,252.56Z" transform="translate(-40.03 -247.57)"/><path class="cls-1" d="M54.56,250.94H58.5l-.32,1.34h-2.3l-.27,1.16h2l-.28,1.11h-2l-.59,2.58H53.12Z" transform="translate(-40.03 -247.57)"/><path class="cls-1" d="M68,250.94h1.62l-1.06,4.56h2.23l-.38,1.63H66.51Z" transform="translate(-40.03 -247.57)"/><path class="cls-1" d="M74.62,250.94h1.62l-1.44,6.19H73.17Z" transform="translate(-40.03 -247.57)"/><path class="cls-1" d="M87,250.94h3.92l-.31,1.35h-2.3l-.27,1.15h2l-.27,1.11h-2l-.29,1.25h2.3l-.31,1.33H85.57Z" transform="translate(-40.03 -247.57)"/><path class="cls-1" d="M80,254.24l-.67,2.9H77.7l1.45-6.2L82,253.89l.69-2.95h1.62l-1.44,6.19Z" transform="translate(-40.03 -247.57)"/><path class="cls-1" d="M61.26,250.94h3.93l-.32,1.34h-2.3l-.27,1.16h2L64,254.55H62l-.59,2.58H59.81Z" transform="translate(-40.03 -247.57)"/></svg>